<?xml version="1.0" standalone="no"?>
 <!DOCTYPE svg PUBLIC "-//W3C//DTD SVG 1.1//EN" 
 "http://www.w3.org/Graphics/SVG/1.1/DTD/svg11.dtd"> 
<svg
  xmlns:svg="http://www.w3.org/2000/svg"
  xmlns="http://www.w3.org/2000/svg"
  xmlns:xlink="http://www.w3.org/1999/xlink"
  version="1.1"
  width="29.700220cm" height="21.000720cm" viewBox="0 0 116930 82680">
<title>SVG Picture created as mech3-F_Cu.svg date 2020/10/27 11:48:43 </title>
  <desc>Picture generated by PCBNEW </desc>
<g style="fill:#000000; fill-opacity:1;stroke:#000000; stroke-opacity:1;
stroke-linecap:round; stroke-linejoin:round;"
 transform="translate(0 0) scale(1 1)">
</g>
<g style="fill:#000000; fill-opacity:0.0; 
stroke:#000000; stroke-width:-0.000393701; stroke-opacity:1; 
stroke-linecap:round; stroke-linejoin:round;">
<g >
</g>
<g style="fill:#000000; fill-opacity:0.0; 
stroke:#000000; stroke-width:0; stroke-opacity:1; 
stroke-linecap:round; stroke-linejoin:round;">
</g>
<g style="fill:#000000; fill-opacity:1.0; 
stroke:#000000; stroke-width:0; stroke-opacity:1; 
stroke-linecap:round; stroke-linejoin:round;">
<path style="fill:#000000; fill-opacity:1.0; 
stroke:#000000; stroke-width:0; stroke-opacity:1; 
stroke-linecap:round; stroke-linejoin:round;fill-rule:evenodd;"
d="M 50935,61634.3
50944.5,61635.7
50953.9,61638.1
50963,61641.3
50971.7,61645.5
50979.9,61650.4
50987.7,61656.2
50994.8,61662.6
51001.3,61669.8
51007.1,61677.5
51012,61685.8
51016.1,61694.5
51019.4,61703.6
51021.7,61713
51023.1,61722.5
51023.6,61732.1
51023.6,62913.5
51023.1,62923.2
51021.7,62932.7
51019.4,62942.1
51016.1,62951.1
51012,62959.9
51007.1,62968.1
51001.3,62975.9
50994.8,62983
50987.7,62989.5
50979.9,62995.2
50971.7,63000.2
50963,63004.3
50953.9,63007.6
50944.5,63009.9
50935,63011.3
50925.4,63011.8
50492,63011.8
50482.3,63011.3
50472.8,63009.9
50463.4,63007.6
50454.4,63004.3
50445.6,63000.2
50437.4,62995.2
50429.6,62989.5
50422.5,62983
50416,62975.9
50410.3,62968.1
50405.3,62959.9
50401.2,62951.1
50397.9,62942.1
50395.6,62932.7
50394.2,62923.2
50393.7,62913.5
50393.7,61732.1
50394.2,61722.5
50395.6,61713
50397.9,61703.6
50401.2,61694.5
50405.3,61685.8
50410.3,61677.5
50416,61669.8
50422.5,61662.6
50429.6,61656.2
50437.4,61650.4
50445.6,61645.5
50454.4,61641.3
50463.4,61638.1
50472.8,61635.7
50482.3,61634.3
50492,61633.9
50925.4,61633.9
Z" /> 
<path style="fill:#000000; fill-opacity:1.0; 
stroke:#000000; stroke-width:0; stroke-opacity:1; 
stroke-linecap:round; stroke-linejoin:round;fill-rule:evenodd;"
d="M 50935,59665.8
50944.5,59667.2
50953.9,59669.6
50963,59672.8
50971.7,59677
50979.9,59681.9
50987.7,59687.7
50994.8,59694.1
51001.3,59701.3
51007.1,59709
51012,59717.3
51016.1,59726
51019.4,59735.1
51021.7,59744.5
51023.1,59754
51023.6,59763.6
51023.6,60945
51023.1,60954.7
51021.7,60964.2
51019.4,60973.6
51016.1,60982.6
51012,60991.4
51007.1,60999.6
51001.3,61007.4
50994.8,61014.5
50987.7,61021
50979.9,61026.7
50971.7,61031.7
50963,61035.8
50953.9,61039.1
50944.5,61041.4
50935,61042.8
50925.4,61043.3
50492,61043.3
50482.3,61042.8
50472.8,61041.4
50463.4,61039.1
50454.4,61035.8
50445.6,61031.7
50437.4,61026.7
50429.6,61021
50422.5,61014.5
50416,61007.4
50410.3,60999.6
50405.3,60991.4
50401.2,60982.6
50397.9,60973.6
50395.6,60964.2
50394.2,60954.7
50393.7,60945
50393.7,59763.6
50394.2,59754
50395.6,59744.5
50397.9,59735.1
50401.2,59726
50405.3,59717.3
50410.3,59709
50416,59701.3
50422.5,59694.1
50429.6,59687.7
50437.4,59681.9
50445.6,59677
50454.4,59672.8
50463.4,59669.6
50472.8,59667.2
50482.3,59665.8
50492,59665.4
50925.4,59665.4
Z" /> 
</g>
<g >
</g>
<g style="fill:#000000; fill-opacity:1.0; 
stroke:#000000; stroke-width:0; stroke-opacity:1; 
stroke-linecap:round; stroke-linejoin:round;">
<path style="fill:#000000; fill-opacity:1.0; 
stroke:#000000; stroke-width:0; stroke-opacity:1; 
stroke-linecap:round; stroke-linejoin:round;fill-rule:evenodd;"
d="M 57305.2,65292.2
57310.9,65293.2
57316.4,65294.8
57321.8,65297
57327,65299.6
57429.3,65358.7
57434.1,65361.8
57438.7,65365.4
57442.8,65369.4
57446.6,65373.9
57449.9,65378.6
57452.7,65383.7
57455,65389
57456.8,65394.5
57458,65400.2
57458.7,65406
57458.8,65411.7
57458.3,65417.5
57457.3,65423.2
57455.7,65428.8
57453.5,65434.2
57450.9,65439.3
56929.2,66342.9
56926.1,66347.7
56922.5,66352.3
56918.5,66356.4
56914,66360.2
56909.3,66363.5
56904.2,66366.3
56898.9,66368.6
56893.4,66370.4
56887.7,66371.6
56882,66372.3
56876.2,66372.4
56870.4,66371.9
56864.7,66370.9
56859.1,66369.3
56853.7,66367.1
56848.6,66364.5
56746.3,66305.4
56741.4,66302.3
56736.9,66298.7
56732.7,66294.7
56729,66290.2
56725.7,66285.5
56722.8,66280.4
56720.5,66275.1
56718.8,66269.6
56717.5,66263.9
56716.9,66258.2
56716.8,66252.4
56717.3,66246.6
56718.3,66240.9
56719.9,66235.3
56722,66229.9
56724.7,66224.8
57246.3,65321.2
57249.5,65316.4
57253.1,65311.8
57257.1,65307.7
57261.5,65303.9
57266.3,65300.6
57271.3,65297.8
57276.7,65295.5
57282.2,65293.7
57287.8,65292.5
57293.6,65291.8
57299.4,65291.7
Z" /> 
<path style="fill:#000000; fill-opacity:1.0; 
stroke:#000000; stroke-width:0; stroke-opacity:1; 
stroke-linecap:round; stroke-linejoin:round;fill-rule:evenodd;"
d="M 57738.2,65542.2
57743.9,65543.2
57749.5,65544.8
57754.8,65547
57760,65549.6
57862.3,65608.7
57867.2,65611.8
57871.7,65615.4
57875.9,65619.4
57879.6,65623.9
57882.9,65628.6
57885.7,65633.7
57888,65639
57889.8,65644.5
57891,65650.2
57891.7,65656
57891.8,65661.7
57891.3,65667.5
57890.3,65673.2
57888.7,65678.8
57886.5,65684.2
57883.9,65689.3
57362.2,66592.9
57359.1,66597.7
57355.5,66602.3
57351.5,66606.4
57347.1,66610.2
57342.3,66613.5
57337.2,66616.3
57331.9,66618.6
57326.4,66620.4
57320.7,66621.6
57315,66622.3
57309.2,66622.4
57303.4,66621.9
57297.7,66620.9
57292.1,66619.3
57286.7,66617.1
57281.6,66614.5
57179.3,66555.4
57174.4,66552.3
57169.9,66548.7
57165.7,66544.7
57162,66540.2
57158.7,66535.5
57155.9,66530.4
57153.5,66525.1
57151.8,66519.6
57150.5,66513.9
57149.9,66508.2
57149.8,66502.4
57150.3,66496.6
57151.3,66490.9
57152.9,66485.3
57155,66479.9
57157.7,66474.8
57679.3,65571.2
57682.5,65566.4
57686.1,65561.8
57690.1,65557.7
57694.5,65553.9
57699.3,65550.6
57704.3,65547.8
57709.7,65545.5
57715.2,65543.7
57720.8,65542.5
57726.6,65541.8
57732.4,65541.7
Z" /> 
<path style="fill:#000000; fill-opacity:1.0; 
stroke:#000000; stroke-width:0; stroke-opacity:1; 
stroke-linecap:round; stroke-linejoin:round;fill-rule:evenodd;"
d="M 58171.2,65792.2
58176.9,65793.2
58182.5,65794.8
58187.9,65797
58193,65799.6
58295.3,65858.7
58300.2,65861.8
58304.7,65865.4
58308.9,65869.4
58312.6,65873.9
58315.9,65878.6
58318.7,65883.7
58321,65889
58322.8,65894.5
58324,65900.2
58324.7,65906
58324.8,65911.7
58324.3,65917.5
58323.3,65923.2
58321.7,65928.8
58319.6,65934.2
58316.9,65939.3
57795.3,66842.9
57792.1,66847.7
57788.5,66852.3
57784.5,66856.4
57780.1,66860.2
57775.3,66863.5
57770.2,66866.3
57764.9,66868.6
57759.4,66870.4
57753.7,66871.6
57748,66872.3
57742.2,66872.4
57736.4,66871.9
57730.7,66870.9
57725.1,66869.3
57719.7,66867.1
57714.6,66864.5
57612.3,66805.4
57607.4,66802.3
57602.9,66798.7
57598.7,66794.7
57595,66790.2
57591.7,66785.5
57588.9,66780.4
57586.6,66775.1
57584.8,66769.6
57583.6,66763.9
57582.9,66758.2
57582.8,66752.4
57583.3,66746.6
57584.3,66740.9
57585.9,66735.3
57588,66729.9
57590.7,66724.8
58112.3,65821.2
58115.5,65816.4
58119.1,65811.8
58123.1,65807.7
58127.5,65803.9
58132.3,65800.6
58137.4,65797.8
58142.7,65795.5
58148.2,65793.7
58153.9,65792.5
58159.6,65791.8
58165.4,65791.7
Z" /> 
<path style="fill:#000000; fill-opacity:1.0; 
stroke:#000000; stroke-width:0; stroke-opacity:1; 
stroke-linecap:round; stroke-linejoin:round;fill-rule:evenodd;"
d="M 58604.2,66042.2
58609.9,66043.2
58615.5,66044.8
58620.9,66047
58626,66049.6
58728.3,66108.7
58733.2,66111.8
58737.7,66115.4
58741.9,66119.4
58745.6,66123.9
58748.9,66128.6
58751.7,66133.7
58754.1,66139
58755.8,66144.5
58757,66150.2
58757.7,66156
58757.8,66161.7
58757.3,66167.5
58756.3,66173.2
58754.7,66178.8
58752.6,66184.2
58749.9,66189.3
58228.3,67092.9
58225.1,67097.7
58221.5,67102.3
58217.5,67106.4
58213.1,67110.2
58208.3,67113.5
58203.2,67116.3
58197.9,67118.6
58192.4,67120.4
58186.7,67121.6
58181,67122.3
58175.2,67122.4
58169.4,67121.9
58163.7,67120.9
58158.1,67119.3
58152.8,67117.1
58147.6,67114.5
58045.3,67055.4
58040.4,67052.3
58035.9,67048.7
58031.7,67044.7
58028,67040.2
58024.7,67035.5
58021.9,67030.4
58019.6,67025.1
58017.8,67019.6
58016.6,67013.9
58015.9,67008.2
58015.8,67002.4
58016.3,66996.6
58017.3,66990.9
58018.9,66985.3
58021,66979.9
58023.7,66974.8
58545.4,66071.2
58548.5,66066.4
58552.1,66061.8
58556.1,66057.7
58560.5,66053.9
58565.3,66050.6
58570.4,66047.8
58575.7,66045.5
58581.2,66043.7
58586.9,66042.5
58592.6,66041.8
58598.4,66041.7
Z" /> 
<path style="fill:#000000; fill-opacity:1.0; 
stroke:#000000; stroke-width:0; stroke-opacity:1; 
stroke-linecap:round; stroke-linejoin:round;fill-rule:evenodd;"
d="M 59037.2,66292.2
59042.9,66293.2
59048.5,66294.8
59053.9,66297
59059,66299.6
59161.3,66358.7
59166.2,66361.8
59170.7,66365.4
59174.9,66369.4
59178.6,66373.9
59181.9,66378.6
59184.8,66383.7
59187.1,66389
59188.8,66394.5
59190.1,66400.2
59190.7,66406
59190.8,66411.7
59190.3,66417.5
59189.3,66423.2
59187.7,66428.8
59185.6,66434.2
59182.9,66439.3
58661.3,67342.9
58658.1,67347.7
58654.5,67352.3
58650.5,67356.4
58646.1,67360.2
58641.3,67363.5
58636.3,67366.3
58630.9,67368.6
58625.4,67370.4
58619.8,67371.6
58614,67372.3
58608.2,67372.4
58602.4,67371.9
58596.7,67370.9
58591.2,67369.3
58585.8,67367.1
58580.6,67364.5
58478.3,67305.4
58473.5,67302.3
58468.9,67298.7
58464.8,67294.7
58461,67290.2
58457.7,67285.5
58454.9,67280.4
58452.6,67275.1
58450.8,67269.6
58449.6,67263.9
58448.9,67258.2
58448.8,67252.4
58449.3,67246.6
58450.3,67240.9
58451.9,67235.3
58454.1,67229.9
58456.7,67224.8
58978.4,66321.2
58981.5,66316.4
58985.1,66311.8
58989.1,66307.7
58993.6,66303.9
58998.3,66300.6
59003.4,66297.8
59008.7,66295.5
59014.2,66293.7
59019.9,66292.5
59025.6,66291.8
59031.4,66291.7
Z" /> 
<path style="fill:#000000; fill-opacity:1.0; 
stroke:#000000; stroke-width:0; stroke-opacity:1; 
stroke-linecap:round; stroke-linejoin:round;fill-rule:evenodd;"
d="M 59470.2,66542.2
59475.9,66543.2
59481.5,66544.8
59486.9,66547
59492,66549.6
59594.3,66608.7
59599.2,66611.8
59603.7,66615.4
59607.9,66619.4
59611.7,66623.9
59615,66628.6
59617.8,66633.7
59620.1,66639
59621.8,66644.5
59623.1,66650.2
59623.7,66656
59623.8,66661.7
59623.4,66667.5
59622.3,66673.2
59620.7,66678.8
59618.6,66684.2
59615.9,66689.3
59094.3,67592.9
59091.2,67597.7
59087.6,67602.3
59083.5,67606.4
59079.1,67610.2
59074.3,67613.5
59069.3,67616.3
59064,67618.6
59058.4,67620.4
59052.8,67621.6
59047,67622.3
59041.2,67622.4
59035.4,67621.9
59029.7,67620.9
59024.2,67619.3
59018.8,67617.1
59013.6,67614.5
58911.3,67555.4
58906.5,67552.3
58901.9,67548.7
58897.8,67544.7
58894,67540.2
58890.7,67535.5
58887.9,67530.4
58885.6,67525.1
58883.8,67519.6
58882.6,67513.9
58881.9,67508.2
58881.8,67502.4
58882.3,67496.6
58883.4,67490.9
58884.9,67485.3
58887.1,67479.9
58889.7,67474.8
59411.4,66571.2
59414.5,66566.4
59418.1,66561.8
59422.2,66557.7
59426.6,66553.9
59431.3,66550.6
59436.4,66547.8
59441.7,66545.5
59447.2,66543.7
59452.9,66542.5
59458.7,66541.8
59464.5,66541.7
Z" /> 
<path style="fill:#000000; fill-opacity:1.0; 
stroke:#000000; stroke-width:0; stroke-opacity:1; 
stroke-linecap:round; stroke-linejoin:round;fill-rule:evenodd;"
d="M 59903.2,66792.2
59908.9,66793.2
59914.5,66794.8
59919.9,66797
59925.1,66799.6
60027.3,66858.7
60032.2,66861.8
60036.8,66865.4
60040.9,66869.4
60044.7,66873.9
60048,66878.6
60050.8,66883.7
60053.1,66889
60054.9,66894.5
60056.1,66900.2
60056.7,66906
60056.8,66911.7
60056.4,66917.5
60055.3,66923.2
60053.7,66928.8
60051.6,66934.2
60049,66939.3
59527.3,67842.9
59524.2,67847.7
59520.6,67852.3
59516.5,67856.4
59512.1,67860.2
59507.4,67863.5
59502.3,67866.3
59497,67868.6
59491.5,67870.4
59485.8,67871.6
59480,67872.3
59474.2,67872.4
59468.5,67871.9
59462.8,67870.9
59457.2,67869.3
59451.8,67867.1
59446.6,67864.5
59344.4,67805.4
59339.5,67802.3
59334.9,67798.7
59330.8,67794.7
59327,67790.2
59323.7,67785.5
59320.9,67780.4
59318.6,67775.1
59316.8,67769.6
59315.6,67763.9
59315,67758.2
59314.9,67752.4
59315.3,67746.6
59316.4,67740.9
59318,67735.3
59320.1,67729.9
59322.7,67724.8
59844.4,66821.2
59847.5,66816.4
59851.1,66811.8
59855.2,66807.7
59859.6,66803.9
59864.3,66800.6
59869.4,66797.8
59874.7,66795.5
59880.2,66793.7
59885.9,66792.5
59891.7,66791.8
59897.5,66791.7
Z" /> 
<path style="fill:#000000; fill-opacity:1.0; 
stroke:#000000; stroke-width:0; stroke-opacity:1; 
stroke-linecap:round; stroke-linejoin:round;fill-rule:evenodd;"
d="M 60877.7,65104.5
60883.4,65105.5
60888.9,65107.1
60894.3,65109.2
60899.5,65111.9
61001.8,65170.9
61006.6,65174.1
61011.2,65177.7
61015.3,65181.7
61019.1,65186.1
61022.4,65190.9
61025.2,65196
61027.5,65201.3
61029.3,65206.8
61030.5,65212.5
61031.2,65218.2
61031.3,65224
61030.8,65229.8
61029.7,65235.5
61028.2,65241.1
61026,65246.5
61023.4,65251.6
60501.7,66155.1
60498.6,66160
60495,66164.6
60490.9,66168.7
60486.5,66172.5
60481.8,66175.8
60476.7,66178.6
60471.4,66180.9
60465.9,66182.7
60460.2,66183.9
60454.4,66184.5
60448.6,66184.6
60442.9,66184.2
60437.2,66183.1
60431.6,66181.5
60426.2,66179.4
60421,66176.8
60318.8,66117.7
60313.9,66114.6
60309.4,66111
60305.2,66106.9
60301.4,66102.5
60298.1,66097.7
60295.3,66092.7
60293,66087.4
60291.2,66081.8
60290,66076.2
60289.4,66070.4
60289.3,66064.6
60289.7,66058.9
60290.8,66053.2
60292.4,66047.6
60294.5,66042.2
60297.1,66037
60818.8,65133.5
60821.9,65128.6
60825.5,65124.1
60829.6,65119.9
60834,65116.2
60838.8,65112.9
60843.8,65110.1
60849.1,65107.8
60854.7,65106
60860.3,65104.8
60866.1,65104.1
60871.9,65104
Z" /> 
<path style="fill:#000000; fill-opacity:1.0; 
stroke:#000000; stroke-width:0; stroke-opacity:1; 
stroke-linecap:round; stroke-linejoin:round;fill-rule:evenodd;"
d="M 60444.6,64854.5
60450.3,64855.5
60455.9,64857.1
60461.3,64859.2
60466.5,64861.9
60568.7,64920.9
60573.6,64924.1
60578.2,64927.7
60582.3,64931.7
60586.1,64936.1
60589.4,64940.9
60592.2,64946
60594.5,64951.3
60596.3,64956.8
60597.5,64962.5
60598.1,64968.2
60598.2,64974
60597.8,64979.8
60596.7,64985.5
60595.1,64991.1
60593,64996.5
60590.4,65001.6
60068.7,65905.1
60065.6,65910
60062,65914.6
60057.9,65918.7
60053.5,65922.5
60048.7,65925.8
60043.7,65928.6
60038.4,65930.9
60032.8,65932.7
60027.2,65933.9
60021.4,65934.5
60015.6,65934.6
60009.9,65934.2
60004.2,65933.1
59998.6,65931.5
59993.2,65929.4
59988,65926.8
59885.7,65867.7
59880.9,65864.6
59876.3,65861
59872.2,65856.9
59868.4,65852.5
59865.1,65847.7
59862.3,65842.7
59860,65837.4
59858.2,65831.8
59857,65826.2
59856.3,65820.4
59856.3,65814.6
59856.7,65808.9
59857.8,65803.2
59859.4,65797.6
59861.5,65792.2
59864.1,65787
60385.8,64883.5
60388.9,64878.6
60392.5,64874.1
60396.6,64869.9
60401,64866.2
60405.7,64862.9
60410.8,64860.1
60416.1,64857.8
60421.6,64856
60427.3,64854.8
60433.1,64854.1
60438.9,64854
Z" /> 
<path style="fill:#000000; fill-opacity:1.0; 
stroke:#000000; stroke-width:0; stroke-opacity:1; 
stroke-linecap:round; stroke-linejoin:round;fill-rule:evenodd;"
d="M 60011.6,64604.5
60017.3,64605.5
60022.9,64607.1
60028.3,64609.2
60033.4,64611.9
60135.7,64670.9
60140.6,64674.1
60145.1,64677.7
60149.3,64681.7
60153.1,64686.1
60156.4,64690.9
60159.2,64696
60161.5,64701.3
60163.2,64706.8
60164.5,64712.5
60165.1,64718.2
60165.2,64724
60164.8,64729.8
60163.7,64735.5
60162.1,64741.1
60160,64746.5
60157.3,64751.6
59635.7,65655.1
59632.6,65660
59628.9,65664.6
59624.9,65668.7
59620.5,65672.5
59615.7,65675.8
59610.7,65678.6
59605.4,65680.9
59599.8,65682.7
59594.2,65683.9
59588.4,65684.5
59582.6,65684.6
59576.8,65684.2
59571.1,65683.1
59565.6,65681.5
59560.2,65679.4
59555,65676.8
59452.7,65617.7
59447.9,65614.6
59443.3,65611
59439.2,65606.9
59435.4,65602.5
59432.1,65597.7
59429.3,65592.7
59427,65587.4
59425.2,65581.8
59424,65576.2
59423.3,65570.4
59423.2,65564.6
59423.7,65558.9
59424.8,65553.2
59426.3,65547.6
59428.5,65542.2
59431.1,65537
59952.8,64633.5
59955.9,64628.6
59959.5,64624.1
59963.5,64619.9
59968,64616.2
59972.7,64612.9
59977.8,64610.1
59983.1,64607.8
59988.6,64606
59994.3,64604.8
60000.1,64604.1
60005.8,64604
Z" /> 
<path style="fill:#000000; fill-opacity:1.0; 
stroke:#000000; stroke-width:0; stroke-opacity:1; 
stroke-linecap:round; stroke-linejoin:round;fill-rule:evenodd;"
d="M 59578.6,64354.5
59584.3,64355.5
59589.9,64357.1
59595.3,64359.2
59600.4,64361.9
59702.7,64420.9
59707.6,64424.1
59712.1,64427.7
59716.3,64431.7
59720,64436.1
59723.3,64440.9
59726.2,64446
59728.5,64451.3
59730.2,64456.8
59731.5,64462.5
59732.1,64468.2
59732.2,64474
59731.7,64479.8
59730.7,64485.5
59729.1,64491.1
59727,64496.5
59724.3,64501.6
59202.7,65405.1
59199.5,65410
59195.9,65414.6
59191.9,65418.7
59187.5,65422.5
59182.7,65425.8
59177.7,65428.6
59172.3,65430.9
59166.8,65432.7
59161.2,65433.9
59155.4,65434.5
59149.6,65434.6
59143.8,65434.2
59138.1,65433.1
59132.6,65431.5
59127.2,65429.4
59122,65426.8
59019.7,65367.7
59014.9,65364.6
59010.3,65361
59006.1,65356.9
59002.4,65352.5
58999.1,65347.7
58996.3,65342.7
58994,65337.4
58992.2,65331.8
58991,65326.2
58990.3,65320.4
58990.2,65314.6
58990.7,65308.9
58991.7,65303.2
58993.3,65297.6
58995.5,65292.2
58998.1,65287
59519.8,64383.5
59522.9,64378.6
59526.5,64374.1
59530.5,64369.9
59535,64366.2
59539.7,64362.9
59544.8,64360.1
59550.1,64357.8
59555.6,64356
59561.3,64354.8
59567,64354.1
59572.8,64354
Z" /> 
<path style="fill:#000000; fill-opacity:1.0; 
stroke:#000000; stroke-width:0; stroke-opacity:1; 
stroke-linecap:round; stroke-linejoin:round;fill-rule:evenodd;"
d="M 59145.6,64104.5
59151.3,64105.5
59156.9,64107.1
59162.3,64109.2
59167.4,64111.9
59269.7,64170.9
59274.6,64174.1
59279.1,64177.7
59283.3,64181.7
59287,64186.1
59290.3,64190.9
59293.1,64196
59295.4,64201.3
59297.2,64206.8
59298.4,64212.5
59299.1,64218.2
59299.2,64224
59298.7,64229.8
59297.7,64235.5
59296.1,64241.1
59294,64246.5
59291.3,64251.6
58769.7,65155.1
58766.5,65160
58762.9,65164.6
58758.9,65168.7
58754.5,65172.5
58749.7,65175.8
58744.6,65178.6
58739.3,65180.9
58733.8,65182.7
58728.1,65183.9
58722.4,65184.5
58716.6,65184.6
58710.8,65184.2
58705.1,65183.1
58699.5,65181.5
58694.2,65179.4
58689,65176.8
58586.7,65117.7
58581.8,65114.6
58577.3,65111
58573.1,65106.9
58569.4,65102.5
58566.1,65097.7
58563.3,65092.7
58561,65087.4
58559.2,65081.8
58558,65076.2
58557.3,65070.4
58557.2,65064.6
58557.7,65058.9
58558.7,65053.2
58560.3,65047.6
58562.4,65042.2
58565.1,65037
59086.7,64133.5
59089.9,64128.6
59093.5,64124.1
59097.5,64119.9
59101.9,64116.2
59106.7,64112.9
59111.8,64110.1
59117.1,64107.8
59122.6,64106
59128.3,64104.8
59134,64104.1
59139.8,64104
Z" /> 
<path style="fill:#000000; fill-opacity:1.0; 
stroke:#000000; stroke-width:0; stroke-opacity:1; 
stroke-linecap:round; stroke-linejoin:round;fill-rule:evenodd;"
d="M 58712.6,63854.5
58718.3,63855.5
58723.9,63857.1
58729.3,63859.2
58734.4,63861.9
58836.7,63920.9
58841.6,63924.1
58846.1,63927.7
58850.3,63931.7
58854,63936.1
58857.3,63940.9
58860.1,63946
58862.4,63951.3
58864.2,63956.8
58865.4,63962.5
58866.1,63968.2
58866.2,63974
58865.7,63979.8
58864.7,63985.5
58863.1,63991.1
58861,63996.5
58858.3,64001.6
58336.7,64905.1
58333.5,64910
58329.9,64914.6
58325.9,64918.7
58321.5,64922.5
58316.7,64925.8
58311.6,64928.6
58306.3,64930.9
58300.8,64932.7
58295.1,64933.9
58289.4,64934.5
58283.6,64934.6
58277.8,64934.2
58272.1,64933.1
58266.5,64931.5
58261.1,64929.4
58256,64926.8
58153.7,64867.7
58148.8,64864.6
58144.3,64861
58140.1,64856.9
58136.4,64852.5
58133.1,64847.7
58130.3,64842.7
58128,64837.4
58126.2,64831.8
58125,64826.2
58124.3,64820.4
58124.2,64814.6
58124.7,64808.9
58125.7,64803.2
58127.3,64797.6
58129.4,64792.2
58132.1,64787
58653.7,63883.5
58656.9,63878.6
58660.5,63874.1
58664.5,63869.9
58668.9,63866.2
58673.7,63862.9
58678.8,63860.1
58684.1,63857.8
58689.6,63856
58695.3,63854.8
58701,63854.1
58706.8,63854
Z" /> 
<path style="fill:#000000; fill-opacity:1.0; 
stroke:#000000; stroke-width:0; stroke-opacity:1; 
stroke-linecap:round; stroke-linejoin:round;fill-rule:evenodd;"
d="M 58279.6,63604.5
58285.3,63605.5
58290.8,63607.1
58296.2,63609.2
58301.4,63611.9
58403.7,63670.9
58408.6,63674.1
58413.1,63677.7
58417.3,63681.7
58421,63686.1
58424.3,63690.9
58427.1,63696
58429.4,63701.3
58431.2,63706.8
58432.4,63712.5
58433.1,63718.2
58433.2,63724
58432.7,63729.8
58431.7,63735.5
58430.1,63741.1
58427.9,63746.5
58425.3,63751.6
57903.6,64655.1
57900.5,64660
57896.9,64664.6
57892.9,64668.7
57888.4,64672.5
57883.7,64675.8
57878.6,64678.6
57873.3,64680.9
57867.8,64682.7
57862.1,64683.9
57856.4,64684.5
57850.6,64684.6
57844.8,64684.2
57839.1,64683.1
57833.5,64681.5
57828.1,64679.4
57823,64676.8
57720.7,64617.7
57715.8,64614.6
57711.3,64611
57707.1,64606.9
57703.4,64602.5
57700.1,64597.7
57697.2,64592.7
57694.9,64587.4
57693.2,64581.8
57691.9,64576.2
57691.3,64570.4
57691.2,64564.6
57691.7,64558.9
57692.7,64553.2
57694.3,64547.6
57696.4,64542.2
57699.1,64537
58220.7,63633.5
58223.9,63628.6
58227.5,63624.1
58231.5,63619.9
58235.9,63616.2
58240.7,63612.9
58245.7,63610.1
58251.1,63607.8
58256.6,63606
58262.2,63604.8
58268,63604.1
58273.8,63604
Z" /> 
</g>
<g >
</g>
<g style="fill:#000000; fill-opacity:1.0; 
stroke:#000000; stroke-width:0; stroke-opacity:1; 
stroke-linecap:round; stroke-linejoin:round;">
<path style="fill:#000000; fill-opacity:1.0; 
stroke:#000000; stroke-width:0; stroke-opacity:1; 
stroke-linecap:round; stroke-linejoin:round;fill-rule:evenodd;"
d="M 55149.3,65287
55158.9,65288.1
55168.4,65290.2
55177.6,65293.1
55186.4,65297
55194.9,65301.6
55202.8,65307.1
55210.2,65313.4
55216.9,65320.3
55222.9,65327.9
55228.1,65336
55365.9,65574.7
55370.3,65583.3
55373.9,65592.3
55376.5,65601.5
55378.3,65611.1
55379.1,65620.7
55378.9,65630.3
55377.8,65639.9
55375.8,65649.4
55372.8,65658.6
55369,65667.4
55364.3,65675.9
55358.8,65683.8
55352.5,65691.2
55345.6,65697.9
55338,65703.9
55329.9,65709.1
55023,65886.3
55014.4,65890.7
55005.5,65894.3
54996.2,65896.9
54986.7,65898.6
54977,65899.4
54967.4,65899.3
54957.8,65898.2
54948.3,65896.1
54939.1,65893.2
54930.3,65889.3
54921.8,65884.6
54913.9,65879.2
54906.5,65872.9
54899.8,65866
54893.8,65858.4
54888.6,65850.3
54750.8,65611.6
54746.4,65603
54742.8,65594
54740.2,65584.7
54738.4,65575.2
54737.7,65565.6
54737.8,65556
54738.9,65546.4
54741,65536.9
54743.9,65527.7
54747.7,65518.9
54752.4,65510.4
54757.9,65502.5
54764.2,65495.1
54771.1,65488.4
54778.7,65482.4
54786.8,65477.2
55093.7,65300
55102.3,65295.6
55111.2,65292
55120.5,65289.4
55130,65287.6
55139.7,65286.9
Z" /> 
<path style="fill:#000000; fill-opacity:1.0; 
stroke:#000000; stroke-width:0; stroke-opacity:1; 
stroke-linecap:round; stroke-linejoin:round;fill-rule:evenodd;"
d="M 55543,65968.9
55552.6,65970
55562.1,65972.1
55571.3,65975
55580.1,65978.9
55588.6,65983.6
55596.5,65989.1
55603.9,65995.3
55610.6,66002.2
55616.6,66009.8
55621.8,66017.9
55759.6,66256.6
55764,66265.2
55767.6,66274.2
55770.2,66283.5
55772,66293
55772.8,66302.6
55772.6,66312.2
55771.5,66321.8
55769.5,66331.3
55766.5,66340.5
55762.7,66349.3
55758,66357.8
55752.5,66365.7
55746.2,66373.1
55739.3,66379.8
55731.7,66385.8
55723.6,66391
55416.7,66568.2
55408.1,66572.6
55399.2,66576.2
55389.9,66578.8
55380.4,66580.6
55370.7,66581.3
55361.1,66581.2
55351.5,66580.1
55342,66578
55332.8,66575.1
55324,66571.2
55315.5,66566.6
55307.6,66561.1
55300.2,66554.8
55293.5,66547.9
55287.5,66540.3
55282.3,66532.2
55144.5,66293.5
55140.1,66284.9
55136.5,66275.9
55133.9,66266.7
55132.1,66257.2
55131.4,66247.5
55131.5,66237.9
55132.6,66228.3
55134.7,66218.8
55137.6,66209.6
55141.4,66200.8
55146.1,66192.3
55151.6,66184.4
55157.9,66177
55164.8,66170.3
55172.4,66164.3
55180.5,66159.1
55487.4,65981.9
55496,65977.5
55504.9,65973.9
55514.2,65971.3
55523.7,65969.6
55533.4,65968.8
Z" /> 
</g>
<g >
</g>
<g style="fill:#000000; fill-opacity:1.0; 
stroke:#000000; stroke-width:0; stroke-opacity:1; 
stroke-linecap:round; stroke-linejoin:round;">
<path style="fill:#000000; fill-opacity:1.0; 
stroke:#000000; stroke-width:0; stroke-opacity:1; 
stroke-linecap:round; stroke-linejoin:round;fill-rule:evenodd;"
d="M 54248.7,63727.1
54258.3,63728.3
54267.8,63730.3
54277,63733.2
54285.8,63737.1
54294.3,63741.8
54302.2,63747.3
54309.6,63753.5
54316.3,63760.5
54322.3,63768
54327.5,63776.1
54455.5,63997.8
54459.9,64006.4
54463.4,64015.3
54466.1,64024.6
54467.8,64034.1
54468.6,64043.8
54468.5,64053.4
54467.4,64063
54465.3,64072.5
54462.4,64081.7
54458.5,64090.5
54453.8,64099
54448.3,64106.9
54442.1,64114.3
54435.1,64121
54427.6,64127
54419.5,64132.2
54112.6,64309.4
54104,64313.8
54095,64317.3
54085.7,64320
54076.2,64321.7
54066.6,64322.5
54056.9,64322.4
54047.4,64321.3
54037.9,64319.2
54028.7,64316.3
54019.9,64312.4
54011.4,64307.7
54003.5,64302.2
53996.1,64296
53989.4,64289
53983.4,64281.5
53978.1,64273.4
53850.2,64051.7
53845.8,64043.1
53842.2,64034.2
53839.6,64024.9
53837.8,64015.4
53837.1,64005.7
53837.2,63996.1
53838.3,63986.5
53840.4,63977.1
53843.3,63967.9
53847.2,63959
53851.8,63950.6
53857.3,63942.6
53863.6,63935.2
53870.5,63928.5
53878.1,63922.5
53886.2,63917.3
54193.1,63740.1
54201.7,63735.7
54210.7,63732.2
54219.9,63729.5
54229.4,63727.8
54239.1,63727
Z" /> 
<path style="fill:#000000; fill-opacity:1.0; 
stroke:#000000; stroke-width:0; stroke-opacity:1; 
stroke-linecap:round; stroke-linejoin:round;fill-rule:evenodd;"
d="M 54652.3,64426.1
54661.9,64427.2
54671.3,64429.2
54680.5,64432.2
54689.4,64436
54697.8,64440.7
54705.8,64446.2
54713.1,64452.5
54719.8,64459.4
54725.8,64467
54731.1,64475.1
54859,64696.7
54863.4,64705.3
54867,64714.3
54869.6,64723.6
54871.4,64733.1
54872.2,64742.7
54872,64752.4
54870.9,64762
54868.9,64771.4
54865.9,64780.6
54862.1,64789.5
54857.4,64797.9
54851.9,64805.9
54845.6,64813.2
54838.7,64819.9
54831.1,64825.9
54823,64831.2
54516.1,65008.3
54507.5,65012.8
54498.6,65016.3
54489.3,65019
54479.8,65020.7
54470.1,65021.5
54460.5,65021.3
54450.9,65020.2
54441.5,65018.2
54432.3,65015.2
54423.4,65011.4
54415,65006.7
54407,65001.2
54399.6,64994.9
54392.9,64988
54386.9,64980.4
54381.7,64972.3
54253.7,64750.7
54249.3,64742.1
54245.8,64733.1
54243.1,64723.8
54241.4,64714.3
54240.6,64704.7
54240.8,64695
54241.9,64685.5
54243.9,64676
54246.9,64666.8
54250.7,64658
54255.4,64649.5
54260.9,64641.6
54267.1,64634.2
54274.1,64627.5
54281.6,64621.5
54289.8,64616.2
54596.6,64439.1
54605.2,64434.7
54614.2,64431.1
54623.5,64428.5
54633,64426.7
54642.6,64425.9
Z" /> 
</g>
<g >
</g>
<g style="fill:#000000; fill-opacity:1.0; 
stroke:#000000; stroke-width:0; stroke-opacity:1; 
stroke-linecap:round; stroke-linejoin:round;">
<path style="fill:#000000; fill-opacity:1.0; 
stroke:#000000; stroke-width:0; stroke-opacity:1; 
stroke-linecap:round; stroke-linejoin:round;fill-rule:evenodd;"
d="M 56437,71854.3
55767.7,71854.3
55767.7,71185
56437,71185
Z" /> 
<circle cx="56102.4" cy="72519.7" r="334.646" /> 
<circle cx="57102.4" cy="71519.7" r="334.646" /> 
<circle cx="57102.4" cy="72519.7" r="334.646" /> 
<circle cx="58102.4" cy="71519.7" r="334.646" /> 
<circle cx="58102.4" cy="72519.7" r="334.646" /> 
</g>
<g >
</g>
<g style="fill:#000000; fill-opacity:1.0; 
stroke:#000000; stroke-width:0; stroke-opacity:1; 
stroke-linecap:round; stroke-linejoin:round;">
<path style="fill:#000000; fill-opacity:1.0; 
stroke:#000000; stroke-width:0; stroke-opacity:1; 
stroke-linecap:round; stroke-linejoin:round;fill-rule:evenodd;"
d="M 57448,68224.4
57457.5,68226.2
57466.8,68228.8
57475.8,68232.4
57484.4,68236.8
57791.2,68413.9
57799.3,68419.2
57806.9,68425.2
57813.8,68431.9
57820.1,68439.3
57825.6,68447.2
57830.3,68455.6
57834.1,68464.5
57837.1,68473.7
57839.1,68483.1
57840.2,68492.7
57840.4,68502.4
57839.6,68512
57837.9,68521.5
57835.2,68530.8
57831.7,68539.8
57827.3,68548.4
57689.5,68787.1
57684.2,68795.2
57678.2,68802.7
57671.5,68809.7
57664.1,68815.9
57656.2,68821.4
57647.7,68826.1
57638.9,68830
57629.7,68832.9
57620.3,68835
57610.7,68836.1
57601,68836.2
57591.4,68835.4
57581.9,68833.7
57572.6,68831.1
57563.6,68827.5
57555,68823.1
57248.1,68645.9
57240,68640.7
57232.5,68634.7
57225.5,68628
57219.3,68620.6
57213.8,68612.7
57209.1,68604.2
57205.2,68595.4
57202.3,68586.2
57200.2,68576.7
57199.1,68567.1
57199,68557.5
57199.8,68547.8
57201.5,68538.3
57204.2,68529
57207.7,68520.1
57212.1,68511.5
57349.9,68272.8
57355.1,68264.7
57361.2,68257.1
57367.9,68250.2
57375.2,68243.9
57383.2,68238.4
57391.6,68233.7
57400.5,68229.9
57409.7,68226.9
57419.1,68224.9
57428.7,68223.8
57438.4,68223.6
Z" /> 
<path style="fill:#000000; fill-opacity:1.0; 
stroke:#000000; stroke-width:0; stroke-opacity:1; 
stroke-linecap:round; stroke-linejoin:round;fill-rule:evenodd;"
d="M 57841.7,67542.5
57851.2,67544.3
57860.5,67546.9
57869.5,67550.5
57878.1,67554.9
58184.9,67732
58193,67737.3
58200.6,67743.3
58207.6,67750
58213.8,67757.4
58219.3,67765.3
58224,67773.7
58227.8,67782.6
58230.8,67791.8
58232.8,67801.2
58233.9,67810.8
58234.1,67820.5
58233.3,67830.1
58231.6,67839.6
58228.9,67848.9
58225.4,67857.9
58221,67866.5
58083.2,68105.2
58077.9,68113.3
58071.9,68120.8
58065.2,68127.8
58057.8,68134
58049.9,68139.5
58041.5,68144.2
58032.6,68148.1
58023.4,68151
58014,68153
58004.4,68154.2
57994.7,68154.3
57985.1,68153.5
57975.6,68151.8
57966.3,68149.1
57957.3,68145.6
57948.7,68141.2
57641.8,67964
57633.7,67958.8
57626.2,67952.8
57619.2,67946.1
57613,67938.7
57607.5,67930.7
57602.8,67922.3
57598.9,67913.4
57596,67904.2
57593.9,67894.8
57592.8,67885.2
57592.7,67875.6
57593.5,67865.9
57595.2,67856.4
57597.9,67847.1
57601.4,67838.2
57605.8,67829.6
57743.6,67590.9
57748.8,67582.8
57754.9,67575.2
57761.6,67568.3
57768.9,67562
57776.9,67556.5
57785.3,67551.8
57794.2,67548
57803.4,67545
57812.8,67543
57822.4,67541.9
57832.1,67541.7
Z" /> 
</g>
<g >
</g>
<g style="fill:#000000; fill-opacity:1.0; 
stroke:#000000; stroke-width:0; stroke-opacity:1; 
stroke-linecap:round; stroke-linejoin:round;">
<path style="fill:#000000; fill-opacity:1.0; 
stroke:#000000; stroke-width:0; stroke-opacity:1; 
stroke-linecap:round; stroke-linejoin:round;fill-rule:evenodd;"
d="M 54231.9,66935.8
54428.8,67276.8
53405.9,67867.3
53209,67526.4
Z" /> 
<path style="fill:#000000; fill-opacity:1.0; 
stroke:#000000; stroke-width:0; stroke-opacity:1; 
stroke-linecap:round; stroke-linejoin:round;fill-rule:evenodd;"
d="M 53231.9,65203.8
53428.8,65544.7
52405.9,66135.3
52209,65794.3
Z" /> 
<path style="fill:#000000; fill-opacity:1.0; 
stroke:#000000; stroke-width:0; stroke-opacity:1; 
stroke-linecap:round; stroke-linejoin:round;fill-rule:evenodd;"
d="M 52603.3,66721.4
52800.2,67062.3
51777.3,67652.9
51580.5,67311.9
Z" /> 
<path style="fill:#000000; fill-opacity:1.0; 
stroke:#000000; stroke-width:0; stroke-opacity:1; 
stroke-linecap:round; stroke-linejoin:round;fill-rule:evenodd;"
d="M 51603.3,64989.3
51800.2,65330.3
50777.3,65920.8
50580.5,65579.9
Z" /> 
</g>
<g >
</g>
<g style="fill:#000000; fill-opacity:1.0; 
stroke:#000000; stroke-width:0; stroke-opacity:1; 
stroke-linecap:round; stroke-linejoin:round;">
<path style="fill:#000000; fill-opacity:1.0; 
stroke:#000000; stroke-width:0; stroke-opacity:1; 
stroke-linecap:round; stroke-linejoin:round;fill-rule:evenodd;"
d="M 55572.8,62417.3
55572.8,62811
54391.7,62811
54391.7,62417.3
Z" /> 
<path style="fill:#000000; fill-opacity:1.0; 
stroke:#000000; stroke-width:0; stroke-opacity:1; 
stroke-linecap:round; stroke-linejoin:round;fill-rule:evenodd;"
d="M 55476.4,60417.3
55476.4,60811
54488.2,60811
54488.2,60417.3
Z" /> 
<path style="fill:#000000; fill-opacity:1.0; 
stroke:#000000; stroke-width:0; stroke-opacity:1; 
stroke-linecap:round; stroke-linejoin:round;fill-rule:evenodd;"
d="M 54173.2,61417.3
54173.2,61811
53185,61811
53185,61417.3
Z" /> 
</g>
<g >
</g>
<g style="fill:#000000; fill-opacity:1.0; 
stroke:#000000; stroke-width:0; stroke-opacity:1; 
stroke-linecap:round; stroke-linejoin:round;">
<path style="fill:#000000; fill-opacity:1.0; 
stroke:#000000; stroke-width:0; stroke-opacity:1; 
stroke-linecap:round; stroke-linejoin:round;fill-rule:evenodd;"
d="M 56929.1,61417.3
56929.1,61811
55940.9,61811
55940.9,61417.3
Z" /> 
<path style="fill:#000000; fill-opacity:1.0; 
stroke:#000000; stroke-width:0; stroke-opacity:1; 
stroke-linecap:round; stroke-linejoin:round;fill-rule:evenodd;"
d="M 58232.3,60417.3
58232.3,60811
57244.1,60811
57244.1,60417.3
Z" /> 
<path style="fill:#000000; fill-opacity:1.0; 
stroke:#000000; stroke-width:0; stroke-opacity:1; 
stroke-linecap:round; stroke-linejoin:round;fill-rule:evenodd;"
d="M 58328.7,62417.3
58328.7,62811
57147.6,62811
57147.6,62417.3
Z" /> 
</g>
<g >
</g>
<g style="fill:#000000; fill-opacity:1.0; 
stroke:#000000; stroke-width:0; stroke-opacity:1; 
stroke-linecap:round; stroke-linejoin:round;">
<path style="fill:#000000; fill-opacity:1.0; 
stroke:#000000; stroke-width:0; stroke-opacity:1; 
stroke-linecap:round; stroke-linejoin:round;fill-rule:evenodd;"
d="M 61084.6,62417.3
61084.6,62811
59903.5,62811
59903.5,62417.3
Z" /> 
<path style="fill:#000000; fill-opacity:1.0; 
stroke:#000000; stroke-width:0; stroke-opacity:1; 
stroke-linecap:round; stroke-linejoin:round;fill-rule:evenodd;"
d="M 60988.2,60417.3
60988.2,60811
60000,60811
60000,60417.3
Z" /> 
<path style="fill:#000000; fill-opacity:1.0; 
stroke:#000000; stroke-width:0; stroke-opacity:1; 
stroke-linecap:round; stroke-linejoin:round;fill-rule:evenodd;"
d="M 59685,61417.3
59685,61811
58696.9,61811
58696.9,61417.3
Z" /> 
</g>
<g >
</g>
<g style="fill:#000000; fill-opacity:1.0; 
stroke:#000000; stroke-width:0; stroke-opacity:1; 
stroke-linecap:round; stroke-linejoin:round;">
<path style="fill:#000000; fill-opacity:1.0; 
stroke:#000000; stroke-width:0; stroke-opacity:1; 
stroke-linecap:round; stroke-linejoin:round;fill-rule:evenodd;"
d="M 62440.9,61417.3
62440.9,61811
61452.8,61811
61452.8,61417.3
Z" /> 
<path style="fill:#000000; fill-opacity:1.0; 
stroke:#000000; stroke-width:0; stroke-opacity:1; 
stroke-linecap:round; stroke-linejoin:round;fill-rule:evenodd;"
d="M 63744.1,60417.3
63744.1,60811
62755.9,60811
62755.9,60417.3
Z" /> 
<path style="fill:#000000; fill-opacity:1.0; 
stroke:#000000; stroke-width:0; stroke-opacity:1; 
stroke-linecap:round; stroke-linejoin:round;fill-rule:evenodd;"
d="M 63840.6,62417.3
63840.6,62811
62659.4,62811
62659.4,62417.3
Z" /> 
</g>
<g >
</g>
<g style="fill:#000000; fill-opacity:1.0; 
stroke:#000000; stroke-width:0; stroke-opacity:1; 
stroke-linecap:round; stroke-linejoin:round;">
<circle cx="55787.4" cy="69881.9" r="334.646" /> 
</g>
<g style="fill:#000000; fill-opacity:1.0; 
stroke:#000000; stroke-width:39.3701; stroke-opacity:1; 
stroke-linecap:round; stroke-linejoin:round;">
</g>
<g style="fill:#000000; fill-opacity:1.0; 
stroke:#000000; stroke-width:0; stroke-opacity:1; 
stroke-linecap:round; stroke-linejoin:round;">
<circle cx="57433.1" cy="69887" r="334.646" /> 
</g>
<g style="fill:#000000; fill-opacity:1.0; 
stroke:#000000; stroke-width:39.3701; stroke-opacity:1; 
stroke-linecap:round; stroke-linejoin:round;">
</g>
<g style="fill:#000000; fill-opacity:1.0; 
stroke:#000000; stroke-width:0; stroke-opacity:1; 
stroke-linecap:round; stroke-linejoin:round;">
<circle cx="59803.1" cy="69842.5" r="334.646" /> 
</g>
<g style="fill:#000000; fill-opacity:1.0; 
stroke:#000000; stroke-width:39.3701; stroke-opacity:1; 
stroke-linecap:round; stroke-linejoin:round;">
</g>
<g style="fill:#000000; fill-opacity:1.0; 
stroke:#000000; stroke-width:0; stroke-opacity:1; 
stroke-linecap:round; stroke-linejoin:round;">
<circle cx="58503.9" cy="69881.9" r="334.646" /> 
</g>
<g style="fill:#000000; fill-opacity:1.0; 
stroke:#000000; stroke-width:39.3701; stroke-opacity:1; 
stroke-linecap:round; stroke-linejoin:round;">
</g>
<g >
</g>
<g style="fill:#000000; fill-opacity:1.0; 
stroke:#000000; stroke-width:39.3701; stroke-opacity:1; 
stroke-linecap:round; stroke-linejoin:round;">
</g>
<g style="fill:#000000; fill-opacity:1.0; 
stroke:#000000; stroke-width:196.85; stroke-opacity:1; 
stroke-linecap:round; stroke-linejoin:round;">
</g>
<g style="fill:#000000; fill-opacity:0.0; 
stroke:#000000; stroke-width:196.85; stroke-opacity:1; 
stroke-linecap:round; stroke-linejoin:round;">
<path d="M53681 61614
L56437 61614
" />
<path d="M56437 61614
L59192 61614
" />
<path d="M59192 61614
L61948 61614
" />
<path d="M56854 66065
L57087 65832
" />
<path d="M56854 67864
L56854 66065
" />
<path d="M57519 68529
L56854 67864
" />
<path d="M51417 61614
L50708 62322
" />
<path d="M53679 61614
L51417 61614
" />
<path d="M50708 63559
L52818 65669
" />
<path d="M50708 62322
L50708 63559
" />
<path d="M56168 70551
L56496 70223
" />
<path d="M55078 70144
L55485 70551
" />
<path d="M55078 67365
L55078 70144
" />
<path d="M52818 65669
L53383 65669
" />
<path d="M55485 70551
L56168 70551
" />
<path d="M56496 69237
L57203 68529
" />
<path d="M57203 68529
L57519 68529
" />
<path d="M53383 65669
L55078 67365
" />
<path d="M56496 70223
L56496 69237
" />
<path d="M52818 65669
L53095 65946
" />
<path d="M55203 71519
L56102 71519
" />
<path d="M53095 65946
L53095 67222
" />
<path d="M52913 67404
L52913 67938
" />
<path d="M52913 67938
L53996 69020
" />
<path d="M53996 70312
L55203 71519
" />
<path d="M53095 67222
L52913 67404
" />
<path d="M53996 69020
L53996 70312
" />
<path d="M63248 60614
L60492 60614
" />
<path d="M60492 60614
L57736 60614
" />
<path d="M57736 60614
L54980 60614
" />
<path d="M63248 61417
L63248 60614
" />
<path d="M62543 62122
L63248 61417
" />
<path d="M54370 62122
L62543 62122
" />
<path d="M54152 64024
L54152 62339
" />
<path d="M54152 62339
L54370 62122
" />
<path d="M56347 64024
L57942 64024
" />
<path d="M57942 64024
L58062 64144
" />
<path d="M54152 64024
L56347 64024
" />
<path d="M50098 64363
L51190 65455
" />
<path d="M50098 60964
L50098 64363
" />
<path d="M50708 60354
L50098 60964
" />
</g>
<g style="fill:#000000; fill-opacity:0.0; 
stroke:#000000; stroke-width:98.4252; stroke-opacity:1; 
stroke-linecap:round; stroke-linejoin:round;">
<path d="M55787 67558
L55787 69881
" />
<path d="M54152 64024
L53951 64226
" />
<path d="M53951 65721
L55787 67558
" />
<path d="M53951 64226
L53951 65721
" />
</g>
<g style="fill:#000000; fill-opacity:0.0; 
stroke:#000000; stroke-width:196.85; stroke-opacity:1; 
stroke-linecap:round; stroke-linejoin:round;">
<path d="M58102 71519
L58102 70556
" />
<path d="M58102 70556
L57433 69887
" />
<path d="M50968 60614
L50708 60354
" />
<path d="M54982 60614
L50968 60614
" />
</g>
<g style="fill:#000000; fill-opacity:0.0; 
stroke:#000000; stroke-width:98.4252; stroke-opacity:1; 
stroke-linecap:round; stroke-linejoin:round;">
<path d="M54556 64723
L55058 65593
" />
<path d="M59685 67332
L59685 69725
" />
<path d="M59685 69725
L59803 69842
" />
<path d="M57102 71519
L56840 71257
" />
<path d="M54340 70169
L55066 70895
" />
<path d="M56311 70895
L56840 70366
" />
<path d="M56840 71257
L56840 69775
" />
<path d="M54340 67923
L54340 70169
" />
<path d="M56840 70366
L56840 69775
" />
<path d="M55066 70895
L56311 70895
" />
<path d="M53818 67401
L54340 67923
" />
<path d="M57854 69232
L58503 69881
" />
<path d="M57147 69232
L57854 69232
" />
<path d="M56840 69775
L56840 69539
" />
<path d="M56840 69539
L57147 69232
" />
<path d="M60738 66618
L60141 66022
" />
<path d="M60141 65479
L60227 65394
" />
<path d="M60141 66022
L60141 65479
" />
<path d="M60738 69731
L60738 66618
" />
<path d="M57102 72519
L57683 73100
" />
<path d="M59358 72122
L60738 69731
" />
<path d="M57683 73100
L58381 73100
" />
<path d="M58381 73100
L59358 72122
" />
<path d="M61350 65168
L61039 64858
" />
<path d="M59071 73803
L61350 69852
" />
<path d="M52190 67702
L53651 69163
" />
<path d="M60743 64858
L60217 65384
" />
<path d="M61039 64858
L60743 64858
" />
<path d="M61350 69852
L61350 65168
" />
<path d="M53651 70935
L56583 73866
" />
<path d="M53651 69163
L53651 70935
" />
<path d="M56583 73866
L58834 73866
" />
<path d="M52190 67187
L52190 67702
" />
<path d="M58834 73866
L59071 73803
" />
<path d="M54980 62614
L55452 62614
" />
<path d="M58679 64210
L58495 64394
" />
<path d="M58441 63358
L58679 63595
" />
<path d="M58679 63595
L58679 64210
" />
<path d="M55726 63358
L58441 63358
" />
<path d="M54982 62614
L55726 63358
" />
<path d="M59013 64558
L58928 64644
" />
<path d="M59013 63419
L59013 64558
" />
<path d="M58208 62614
L59013 63419
" />
<path d="M57736 62614
L58208 62614
" />
<path d="M60492 63763
L59361 64894
" />
<path d="M60492 62614
L60492 63763
" />
<path d="M59996 64852
L59879 64852
" />
<path d="M60078 64769
L59996 64852
" />
<path d="M60078 64641
L60078 64769
" />
<path d="M63248 62614
L62106 62614
" />
<path d="M62106 62614
L60078 64641
" />
<path d="M57716 67795
L57862 67795
" />
<path d="M57913 67075
L58396 66592
" />
<path d="M57913 67848
L57913 67075
" />
<path d="M59084 69019
L59084 71537
" />
<path d="M59084 71537
L58102 72519
" />
<path d="M57913 67848
L59084 69019
" />
</g>
<g style="fill:#000000; fill-opacity:0.0; 
stroke:#000000; stroke-width:196.85; stroke-opacity:1; 
stroke-linecap:round; stroke-linejoin:round;">
<path d="M57753 65263
L57753 65759
" />
<path d="M57487 64996
L57753 65263
" />
<path d="M55452 66275
L56730 64996
" />
<path d="M56730 64996
L57487 64996
" />
</g>
<g style="fill:#000000; fill-opacity:0.0; 
stroke:#000000; stroke-width:98.4252; stroke-opacity:1; 
stroke-linecap:round; stroke-linejoin:round;">
<path d="M57132 73549
L58876 73549
" />
<path d="M61033 66017
L60660 65644
" />
<path d="M61033 69810
L61033 66017
" />
<path d="M56102 72519
L57132 73549
" />
<path d="M58876 73549
L61033 69810
" />
</g>
<g >
</g>
<g style="fill:#000000; fill-opacity:0.0; 
stroke:#000000; stroke-width:98.4252; stroke-opacity:1; 
stroke-linecap:round; stroke-linejoin:round;">
<g >
</g>
<g style="fill:#000000; fill-opacity:1.0; 
stroke:#000000; stroke-width:100; stroke-opacity:1; 
stroke-linecap:round; stroke-linejoin:round;">
<path style="fill:#000000; fill-opacity:1.0; 
stroke:#000000; stroke-width:100; stroke-opacity:1; 
stroke-linecap:round; stroke-linejoin:round;fill-rule:evenodd;"
d="M 57936.5,69737.6
57919.3,69824.3
57919.3,69939.5
57941.8,70052.4
57985.8,70158.8
58049.8,70254.6
58131.2,70336
58227,70400
58333.4,70444.1
58446.4,70466.5
58561.5,70466.5
58674.5,70444.1
58780.9,70400
58785.4,70396.9
58785.4,71413.5
58687,71511.9
58687,71469.7
58622.4,71469.7
58669.9,71379.2
58631.6,71271.2
58572.9,71172.7
58496.2,71087.6
58404.3,71019
58300.8,70969.8
58242.9,70952.2
58152.4,70999.9
58152.4,71469.7
58160.2,71469.7
58160.2,71569.7
58152.4,71569.7
58152.4,71577.6
58052.4,71577.6
58052.4,71569.7
58044.5,71569.7
58044.5,71469.7
58052.4,71469.7
58052.4,70999.9
57961.9,70952.2
57903.9,70969.8
57800.4,71019
57708.6,71087.6
57631.8,71172.7
57604.4,71218.7
57556.5,71147
57475.1,71065.6
57379.3,71001.6
57272.9,70957.5
57159.9,70935
57139.8,70935
57139.8,70381
57141.2,70366.3
57139.8,70351.6
57139.8,69663.5
57271.8,69531.5
57730.4,69531.5
Z" /> 
<path style="fill:#000000; fill-opacity:1.0; 
stroke:#000000; stroke-width:100; stroke-opacity:1; 
stroke-linecap:round; stroke-linejoin:round;fill-rule:evenodd;"
d="M 61649.6,69325.6
61649.6,65183.6
61651,65168.9
61649.6,65154.2
61649.6,65154.2
61645.2,65110.2
61628.1,65053.8
61600.3,65001.9
61563,64956.3
61551.5,64946.9
61261.5,64656.9
61252.1,64645.4
61206.5,64608
61154.6,64580.3
61098.2,64563.2
61054.2,64558.8
61054.2,64558.8
61039.5,64557.4
61024.8,64558.8
60758.3,64558.8
60743.6,64557.4
60728.9,64558.8
60728.9,64558.8
60685,64563.2
60628.6,64580.3
60576.6,64608
60576.6,64608
60576.6,64608
60553.6,64626.9
60536.7,64619.2
60526.5,64616.9
62230,62913.4
62430.7,62913.4
62450.6,62950.6
62481.8,62988.7
62519.9,63019.9
62563.3,63043.1
62610.4,63057.4
62659.4,63062.2
63840.6,63062.2
63889.6,63057.4
63936.7,63043.1
63980.1,63019.9
64018.2,62988.7
64049.4,62950.6
64072.6,62907.2
64086.9,62860
64091.8,62811
64091.8,62417.3
64086.9,62368.3
64072.6,62321.2
64049.4,62277.8
64018.2,62239.7
63980.1,62208.4
63936.7,62185.2
63889.6,62170.9
63840.6,62166.1
62659.4,62166.1
62610.4,62170.9
62563.3,62185.2
62519.9,62208.4
62481.8,62239.7
62450.6,62277.8
62430.7,62315
62120.7,62315
62106,62313.5
62091.3,62315
62091.3,62315
62047.4,62319.3
61991,62336.4
61939,62364.2
61893.4,62401.6
61884.1,62413
60791.3,63505.7
60791.3,63062.2
61084.6,63062.2
61133.7,63057.4
61180.8,63043.1
61224.2,63019.9
61262.3,62988.7
61293.5,62950.6
61316.7,62907.2
61331,62860
61335.9,62811
61335.9,62417.3
61331,62368.3
61316.7,62321.2
61293.5,62277.8
61262.3,62239.7
61224.2,62208.4
61180.8,62185.2
61133.7,62170.9
61084.6,62166.1
59903.5,62166.1
59854.5,62170.9
59807.4,62185.2
59764,62208.4
59725.9,62239.7
59694.7,62277.8
59671.5,62321.2
59657.2,62368.3
59652.3,62417.3
59652.3,62811
59657.2,62860
59671.5,62907.2
59694.7,62950.6
59725.9,62988.7
59764,63019.9
59807.4,63043.1
59854.5,63057.4
59903.5,63062.2
60192.9,63062.2
60192.9,63639.5
59699.9,64132.5
59670.6,64119.2
59611.4,64105.4
59550.6,64103.4
59526.9,64107.3
59518.4,64084.9
59486.3,64033.2
59444.7,63988.8
59395.3,63953.4
59312.9,63905.8
59312.9,63433.9
59314.4,63419.2
59312.9,63404.6
59312.9,63404.5
59308.6,63360.6
59291.5,63304.2
59263.7,63252.2
59226.3,63206.6
59214.9,63197.3
58579.9,62562.3
58579.9,62417.3
58575.1,62368.3
58560.8,62321.2
58537.6,62277.8
58506.4,62239.7
58468.3,62208.4
58424.9,62185.2
58377.7,62170.9
58328.7,62166.1
57147.6,62166.1
57098.6,62170.9
57051.5,62185.2
57008.1,62208.4
56970,62239.7
56938.8,62277.8
56915.6,62321.2
56901.3,62368.3
56896.4,62417.3
56896.4,62811
56901.3,62860
56915.6,62907.2
56938.8,62950.6
56970,62988.7
57008.1,63019.9
57051.5,63043.1
57098.6,63057.4
57113,63058.8
55850.1,63058.8
55763.7,62972.5
55781.7,62950.6
55804.9,62907.2
55819.2,62860
55824,62811
55824,62417.3
55819.2,62368.3
55804.9,62321.2
55781.7,62277.8
55750.5,62239.7
55712.4,62208.4
55669,62185.2
55621.8,62170.9
55572.8,62166.1
54391.7,62166.1
54342.7,62170.9
54295.6,62185.2
54252.2,62208.4
54214.1,62239.7
54182.9,62277.8
54159.6,62321.2
54145.3,62368.3
54140.5,62417.3
54140.5,62811
54145.3,62860
54159.6,62907.2
54182.9,62950.6
54214.1,62988.7
54252.2,63019.9
54295.6,63043.1
54342.7,63057.4
54391.7,63062.2
55007.2,63062.2
55504.2,63559.2
55513.5,63570.6
55525,63580
55559.1,63608
55603.7,63631.8
55611.1,63635.8
55667.5,63652.9
55711.4,63657.2
55711.5,63657.2
55726.1,63658.7
55740.8,63657.2
57917.6,63657.2
57799.6,63862.8
57822.5,63948.2
58043.9,64076
58047.8,64069.2
58134.4,64119.2
58130.5,64126
58137.3,64130
58087.3,64216.6
58080.5,64212.6
58076.5,64219.4
57989.9,64169.4
57993.9,64162.6
57772.5,64034.8
57687.1,64057.7
57452,64462.6
57431.7,64507.4
57420.5,64555.4
57418.9,64604.6
57426.1,64648.1
56747.7,64648.1
56730.6,64646.4
56713.4,64648.1
56713.4,64648.1
56662.3,64653.2
56596.6,64673.1
56573.7,64685.3
56536,64705.4
56496.3,64738.1
56496.3,64738.1
56483,64749
56472.1,64762.3
55628.2,65606.1
55627.3,65578.3
55611.8,65511.5
55583.5,65449.1
55445.7,65210.4
55405.8,65154.7
55355.7,65107.8
55297.5,65071.7
55233.4,65047.5
55165.8,65036.3
55097.2,65038.6
55085.3,65041.4
55042.8,64967.7
55051.2,64958.8
55087.4,64900.6
55111.5,64836.4
55122.7,64768.8
55120.4,64700.3
55104.9,64633.6
55076.6,64571.1
54948.6,64349.5
54908.7,64293.8
54858.7,64246.9
54800.5,64210.7
54736.3,64186.6
54733,64186.1
54747.3,64148
54755.4,64099.4
54753.8,64050.2
54742.6,64002.3
54722.3,63957.4
54664.3,63859.4
54578.9,63836.5
54221.1,64043.1
54225.1,64049.9
54138.5,64099.9
54134.5,64093.1
53776.8,64299.6
53753.9,64385
53809.8,64484.2
53838.5,64524.2
53874.4,64557.9
53916.3,64583.9
53962.3,64601.2
54002.4,64607.9
54001.3,64611
53990.1,64678.6
53992.3,64747.1
54007.9,64813.9
54036.2,64876.3
54164.1,65097.9
54204.1,65153.6
54254.1,65200.5
54312.3,65236.7
54376.4,65260.8
54444.1,65272
54512.6,65269.7
54524.5,65267
54567,65340.6
54558.6,65349.6
54522.4,65407.8
54498.3,65471.9
54487.1,65539.5
54489.4,65608
54504.9,65674.8
54533.2,65737.2
54671,65975.9
54710.9,66031.6
54761,66078.4
54819.2,66114.6
54883.3,66138.8
54896.8,66141
54892,66153.8
54880.8,66221.4
54883.1,66289.9
54898.6,66356.7
54926.9,66419.1
55064.7,66657.8
55104.7,66713.5
55154.7,66760.4
55212.9,66796.6
55277,66820.7
55344.7,66831.9
55413.2,66829.6
55479.9,66814.1
55542.3,66785.8
55849.2,66608.6
55904.9,66568.7
55951.8,66518.7
55988,66460.4
56012.1,66396.3
56023.3,66328.7
56021,66260.2
56009.4,66210.4
56874.9,65345
56942.5,65345
56751.9,65675.2
56620.3,65806.7
56607,65817.7
56596.1,65830.9
56596.1,65830.9
56563.5,65870.7
56531.1,65931.2
56511.2,65996.9
56504.5,66065.2
56506.2,66082.3
56506.2,66101.2
56482,66154.6
56468.2,66213.8
56466.2,66274.6
56476.1,66334.6
56497.5,66391.5
56506.2,66405.4
56506.2,67847.7
56504.5,67864.9
56506.2,67882
56506.2,67882
56509,67910.3
56511.2,67933.2
56514.3,67943.2
56531.1,67998.8
56563.5,68059.4
56607,68112.4
56620.3,68123.3
56869.1,68372.1
56261.8,68979.3
56248.5,68990.3
56237.6,69003.5
56237.6,69003.5
56205,69043.3
56172.6,69103.8
56152.7,69169.5
56146,69237.8
56147.6,69254.9
56147.6,70079.3
56024.2,70202.8
55629.4,70202.8
55427.2,70000.6
55427.2,67382.2
55428.8,67365.1
55427.2,67348
55427.2,67348
55422.1,67296.8
55402.2,67231.1
55369.8,67170.6
55356.3,67154
55337.2,67130.8
55337.2,67130.8
55326.3,67117.5
55313,67106.6
53663.5,65457.1
53646.3,65419.1
53449.5,65078.2
53420.8,65038.1
53384.8,65004.5
53343,64978.5
53296.9,64961.1
53248.3,64953.1
53199.1,64954.7
53151.2,64965.9
53106.3,64986.2
52803.3,65161.2
51592.2,63950.1
53550.3,63950.1
53551.9,63999.3
53563.1,64047.2
53583.4,64092.1
53641.4,64190.1
53726.8,64213
54084.5,64006.5
53902.6,63691.3
53817.2,63668.4
53675.4,63748.9
53635.3,63777.6
53601.7,63813.6
53575.7,63855.4
53558.3,63901.5
53550.3,63950.1
51592.2,63950.1
51283.4,63641.3
53989.2,63641.3
54171.1,63956.5
54528.9,63749.9
54551.8,63664.5
54495.9,63565.3
54467.2,63525.3
54431.2,63491.6
54389.4,63465.6
54343.3,63448.3
54294.7,63440.2
54245.5,63441.8
54197.6,63453
54152.7,63473.4
54012.1,63555.9
53989.2,63641.3
51283.4,63641.3
51057.1,63415
51057.1,63237
51059.1,63236.4
51119.5,63204.1
51172.5,63160.7
51215.9,63107.7
51248.2,63047.3
51268.1,62981.7
51274.8,62913.5
51274.8,62249.4
51561.6,61962.6
52986,61962.6
53007.4,61988.7
53045.5,62019.9
53088.9,62043.1
53136,62057.4
53185,62062.2
54173.2,62062.2
54222.2,62057.4
54269.4,62043.1
54312.8,62019.9
54350.9,61988.7
54372.2,61962.6
55741.9,61962.6
55763.3,61988.7
55801.4,62019.9
55844.8,62043.1
55891.9,62057.4
55940.9,62062.2
56929.1,62062.2
56978.1,62057.4
57025.3,62043.1
57068.7,62019.9
57106.8,61988.7
57128.2,61962.6
58497.8,61962.6
58519.2,61988.7
58557.3,62019.9
58600.7,62043.1
58647.8,62057.4
58696.9,62062.2
59685,62062.2
59734,62057.4
59781.2,62043.1
59824.6,62019.9
59862.7,61988.7
59884.1,61962.6
61253.7,61962.6
61275.1,61988.7
61313.2,62019.9
61356.6,62043.1
61403.7,62057.4
61452.8,62062.2
62440.9,62062.2
62490,62057.4
62537.1,62043.1
62580.5,62019.9
62618.6,61988.7
62649.8,61950.6
62673,61907.2
62687.3,61860
62692.2,61811
62692.2,61417.3
62687.3,61368.3
62673,61321.2
62649.8,61277.8
62618.6,61239.7
62580.5,61208.4
62537.1,61185.2
62490,61170.9
62440.9,61166.1
61452.8,61166.1
61403.7,61170.9
61356.6,61185.2
61313.2,61208.4
61275.1,61239.7
61253.7,61265.7
59884.1,61265.7
59862.7,61239.7
59824.6,61208.4
59781.2,61185.2
59734,61170.9
59685,61166.1
58696.9,61166.1
58647.8,61170.9
58600.7,61185.2
58557.3,61208.4
58519.2,61239.7
58497.8,61265.7
57128.2,61265.7
57106.8,61239.7
57068.7,61208.4
57025.3,61185.2
56978.1,61170.9
56929.1,61166.1
55940.9,61166.1
55891.9,61170.9
55844.8,61185.2
55801.4,61208.4
55763.3,61239.7
55741.9,61265.7
54372.2,61265.7
54350.9,61239.7
54312.8,61208.4
54269.4,61185.2
54222.2,61170.9
54173.2,61166.1
53185,61166.1
53136,61170.9
53088.9,61185.2
53045.5,61208.4
53007.4,61239.7
52986,61265.7
51434.4,61265.7
51417.3,61264.1
51400.2,61265.7
51400.2,61265.7
51349,61270.8
51283.3,61290.7
51222.8,61323.1
51222.8,61323.1
51222.8,61323.1
51183.1,61355.7
51183.1,61355.7
51169.8,61366.6
51158.8,61379.9
51105,61433.8
51059.1,61409.3
50993.5,61389.4
50925.4,61382.6
50492,61382.6
50423.8,61389.4
50358.2,61409.3
50297.8,61441.5
50244.9,61485
50201.4,61538
50169.1,61598.4
50149.2,61663.9
50142.5,61732.1
50142.5,62913.5
50149.2,62981.7
50169.1,63047.3
50201.4,63107.7
50244.9,63160.7
50297.8,63204.1
50358.2,63236.4
50360.2,63237
50360.2,63542.2
50358.6,63559.3
50365.3,63627.6
50385.2,63693.3
50417.6,63753.8
50450.2,63793.6
50450.2,63793.6
50461.1,63806.9
50474.4,63817.8
51446.5,64789.9
51064.3,65011.8
51041.5,65097.2
51208.6,65386.8
51215.5,65382.8
51265.5,65469.4
51258.6,65473.4
51425.8,65762.9
51511.2,65785.8
51925.8,65547.8
51965.8,65519.1
51999.5,65483.2
52025.5,65441.4
52042.8,65395.3
52044.1,65387.5
52178.5,65521.9
52083.4,65576.8
52043.4,65605.5
52009.7,65641.4
51983.7,65683.2
51966.4,65729.3
51958.4,65777.9
51960,65827.1
51971.2,65875.1
51991.5,65919.9
52188.3,66260.9
52217,66300.9
52253,66334.6
52294.8,66360.6
52340.9,66377.9
52389.5,66385.9
52438.7,66384.3
52486.6,66373.2
52531.5,66352.8
52747,66228.4
52747,66516.3
52714.5,66496.1
52668.4,66478.7
52619.8,66470.7
52570.6,66472.3
52522.6,66483.5
52477.7,66503.8
51454.9,67094.4
51414.8,67123.1
51381.2,67159
51355.2,67200.8
51337.8,67246.9
51334.9,67264.8
50696.1,66157.4
50712.3,66163.5
50760.9,66171.5
50810.1,66169.9
50858.1,66158.7
50902.9,66138.4
51316.3,65898.3
51339.2,65812.9
51172,65523.4
51165.2,65527.3
51115.2,65440.7
51122,65436.8
50954.9,65147.2
50869.5,65124.3
50454.9,65362.3
50414.8,65391
50381.2,65426.9
50355.2,65468.8
50337.8,65514.9
50335.1,65531.6
47746.1,61043.3
50142.5,61043.3
50147.3,61092.3
50161.6,61139.4
50184.8,61182.9
50216.1,61220.9
50254.1,61252.2
50297.6,61275.4
50344.7,61289.7
50393.7,61294.5
50596.2,61293.3
50658.7,61230.8
50658.7,60404.3
50758.7,60404.3
50758.7,61230.8
50821.2,61293.3
51023.6,61294.5
51072.6,61289.7
51119.8,61275.4
51163.2,61252.2
51201.3,61220.9
51232.5,61182.9
51255.7,61139.4
51270,61092.3
51274.8,61043.3
51274.3,60811
54237,60811
54241.8,60860
54256.1,60907.2
54279.3,60950.6
54310.6,60988.7
54348.6,61019.9
54392.1,61043.1
54439.2,61057.4
54488.2,61062.2
54869.8,61061
54932.3,60998.5
54932.3,60664.2
55032.3,60664.2
55032.3,60998.5
55094.8,61061
55476.4,61062.2
55525.4,61057.4
55572.5,61043.1
55615.9,61019.9
55654,60988.7
55685.3,60950.6
55708.5,60907.2
55722.8,60860
55727.6,60811
56992.9,60811
56997.7,60860
57012,60907.2
57035.2,60950.6
57066.5,60988.7
57104.5,61019.9
57148,61043.1
57195.1,61057.4
57244.1,61062.2
57625.7,61061
57688.2,60998.5
57688.2,60664.2
57788.2,60664.2
57788.2,60998.5
57850.7,61061
58232.3,61062.2
58281.3,61057.4
58328.4,61043.1
58371.8,61019.9
58409.9,60988.7
58441.2,60950.6
58464.4,60907.2
58478.7,60860
58483.5,60811
59748.8,60811
59753.6,60860
59767.9,60907.2
59791.1,60950.6
59822.4,60988.7
59860.4,61019.9
59903.9,61043.1
59951,61057.4
60000,61062.2
60381.6,61061
60444.1,60998.5
60444.1,60664.2
60544.1,60664.2
60544.1,60998.5
60606.6,61061
60988.2,61062.2
61037.2,61057.4
61084.3,61043.1
61127.8,61019.9
61165.8,60988.7
61197.1,60950.6
61220.3,60907.2
61234.6,60860
61239.4,60811
62504.7,60811
62509.5,60860
62523.8,60907.2
62547,60950.6
62578.3,60988.7
62616.3,61019.9
62659.8,61043.1
62706.9,61057.4
62755.9,61062.2
63137.5,61061
63200,60998.5
63200,60664.2
63300,60664.2
63300,60998.5
63362.5,61061
63744.1,61062.2
63793.1,61057.4
63840.2,61043.1
63883.7,61019.9
63921.7,60988.7
63953,60950.6
63976.2,60907.2
63990.5,60860
63995.3,60811
63994.1,60726.7
63931.6,60664.2
63300,60664.2
63200,60664.2
62568.4,60664.2
62505.9,60726.7
62504.7,60811
61239.4,60811
61238.2,60726.7
61175.7,60664.2
60544.1,60664.2
60444.1,60664.2
59812.5,60664.2
59750,60726.7
59748.8,60811
58483.5,60811
58482.3,60726.7
58419.8,60664.2
57788.2,60664.2
57688.2,60664.2
57056.6,60664.2
56994.1,60726.7
56992.9,60811
55727.6,60811
55726.4,60726.7
55663.9,60664.2
55032.3,60664.2
54932.3,60664.2
54300.7,60664.2
54238.2,60726.7
54237,60811
51274.3,60811
51273.6,60466.8
51224.1,60417.3
54237,60417.3
54238.2,60501.7
54300.7,60564.2
54932.3,60564.2
54932.3,60229.8
55032.3,60229.8
55032.3,60564.2
55663.9,60564.2
55726.4,60501.7
55727.6,60417.3
56992.9,60417.3
56994.1,60501.7
57056.6,60564.2
57688.2,60564.2
57688.2,60229.8
57788.2,60229.8
57788.2,60564.2
58419.8,60564.2
58482.3,60501.7
58483.5,60417.3
59748.8,60417.3
59750,60501.7
59812.5,60564.2
60444.1,60564.2
60444.1,60229.8
60544.1,60229.8
60544.1,60564.2
61175.7,60564.2
61238.2,60501.7
61239.4,60417.3
62504.7,60417.3
62505.9,60501.7
62568.4,60564.2
63200,60564.2
63200,60229.8
63300,60229.8
63300,60564.2
63931.6,60564.2
63994.1,60501.7
63995.3,60417.3
63990.5,60368.3
63976.2,60321.2
63953,60277.8
63921.7,60239.7
63883.7,60208.4
63840.2,60185.2
63793.1,60170.9
63744.1,60166.1
63362.5,60167.3
63300,60229.8
63200,60229.8
63137.5,60167.3
62755.9,60166.1
62706.9,60170.9
62659.8,60185.2
62616.3,60208.4
62578.3,60239.7
62547,60277.8
62523.8,60321.2
62509.5,60368.3
62504.7,60417.3
61239.4,60417.3
61234.6,60368.3
61220.3,60321.2
61197.1,60277.8
61165.8,60239.7
61127.8,60208.4
61084.3,60185.2
61037.2,60170.9
60988.2,60166.1
60606.6,60167.3
60544.1,60229.8
60444.1,60229.8
60381.6,60167.3
60000,60166.1
59951,60170.9
59903.9,60185.2
59860.4,60208.4
59822.4,60239.7
59791.1,60277.8
59767.9,60321.2
59753.6,60368.3
59748.8,60417.3
58483.5,60417.3
58478.7,60368.3
58464.4,60321.2
58441.2,60277.8
58409.9,60239.7
58371.8,60208.4
58328.4,60185.2
58281.3,60170.9
58232.3,60166.1
57850.7,60167.3
57788.2,60229.8
57688.2,60229.8
57625.7,60167.3
57244.1,60166.1
57195.1,60170.9
57148,60185.2
57104.5,60208.4
57066.5,60239.7
57035.2,60277.8
57012,60321.2
56997.7,60368.3
56992.9,60417.3
55727.6,60417.3
55722.8,60368.3
55708.5,60321.2
55685.3,60277.8
55654,60239.7
55615.9,60208.4
55572.5,60185.2
55525.4,60170.9
55476.4,60166.1
55094.8,60167.3
55032.3,60229.8
54932.3,60229.8
54869.8,60167.3
54488.2,60166.1
54439.2,60170.9
54392.1,60185.2
54348.6,60208.4
54310.6,60239.7
54279.3,60277.8
54256.1,60321.2
54241.8,60368.3
54237,60417.3
51224.1,60417.3
51211.1,60404.3
50758.7,60404.3
50658.7,60404.3
50206.2,60404.3
50143.7,60466.8
50142.5,61043.3
47746.1,61043.3
46951.2,59665.4
50142.5,59665.4
50143.7,60241.8
50206.2,60304.3
50658.7,60304.3
50658.7,59477.9
50758.7,59477.9
50758.7,60304.3
51211.1,60304.3
51273.6,60241.8
51274.8,59665.4
51270,59616.3
51255.7,59569.2
51232.5,59525.8
51201.3,59487.7
51163.2,59456.5
51119.8,59433.3
51072.6,59419
51023.6,59414.1
50821.2,59415.4
50758.7,59477.9
50658.7,59477.9
50596.2,59415.4
50393.7,59414.1
50344.7,59419
50297.6,59433.3
50254.1,59456.5
50216.1,59487.7
50184.8,59525.8
50161.6,59569.2
50147.3,59616.3
50142.5,59665.4
46951.2,59665.4
46749.1,59315
67424.2,59315
Z" /> 
</g>
</g>
</g> 
</svg>
